<?xml version="1.0" encoding="UTF-8" standalone="no"?>
<!DOCTYPE svg PUBLIC "-//W3C//DTD SVG 1.1//EN" "http://www.w3.org/Graphics/SVG/1.1/DTD/svg11.dtd">
<svg width="100%" height="100%" viewBox="0 0 512 512" version="1.1" xmlns="http://www.w3.org/2000/svg" xmlns:xlink="http://www.w3.org/1999/xlink" xml:space="preserve" xmlns:serif="http://www.serif.com/" style="fill-rule:evenodd;clip-rule:evenodd;stroke-linejoin:round;stroke-miterlimit:2;">
    <g id="Default" transform="matrix(0.936772,0,0,0.93687,12.3759,12.4828)">
        <g transform="matrix(1.33333,0,0,1.33333,-63.3333,-129.667)">
            <path d="M145,320C169.836,320 190,340.164 190,365C190,389.836 169.836,410 145,410C120.164,410 100,389.836 100,365C100,340.164 120.164,320 145,320ZM145,337.305C160.285,337.305 172.695,349.715 172.695,365C172.695,380.285 160.285,392.695 145,392.695C129.715,392.695 117.305,380.285 117.305,365C117.305,349.715 129.715,337.305 145,337.305Z" style="fill:white;"/>
        </g>
        <g transform="matrix(1.33333,0,0,1.33333,196.802,-129.667)">
            <path d="M145,320C169.836,320 190,340.164 190,365C190,389.836 169.836,410 145,410C120.164,410 100,389.836 100,365C100,340.164 120.164,320 145,320ZM145,337.305C160.285,337.305 172.695,349.715 172.695,365C172.695,380.285 160.285,392.695 145,392.695C129.715,392.695 117.305,380.285 117.305,365C117.305,349.715 129.715,337.305 145,337.305Z" style="fill:white;"/>
        </g>
        <g transform="matrix(1.33333,0,0,1.33333,66.9544,-348.907)">
            <path d="M145,320C169.836,320 190,340.164 190,365C190,389.836 169.836,410 145,410C120.164,410 100,389.836 100,365C100,340.164 120.164,320 145,320ZM145,337.305C160.285,337.305 172.695,349.715 172.695,365C172.695,380.285 160.285,392.695 145,392.695C129.715,392.695 117.305,380.285 117.305,365C117.305,349.715 129.715,337.305 145,337.305Z" style="fill:white;"/>
        </g>
        <g transform="matrix(0.142802,0.0757818,-0.0757807,0.142801,149.336,180.538)">
            <path d="M274.273,540.406C349.426,440.034 476.853,465.795 523.929,537.837C538.741,560.505 569.17,566.883 591.837,552.071C614.505,537.259 620.883,506.83 606.071,484.163C528.698,365.754 319.247,316.625 195.727,481.594C179.497,503.27 183.919,534.044 205.594,550.273C227.27,566.503 258.044,562.081 274.273,540.406Z" style="fill:white;"/>
        </g>
        <g transform="matrix(0.142802,0.0757818,-0.0757807,0.142801,167.549,148.995)">
            <path d="M169.283,574.891C267.714,459.816 479.019,422.03 622.121,575.463C640.59,595.265 671.661,596.348 691.463,577.879C711.265,559.41 712.348,528.339 693.879,508.537C504.535,305.524 224.954,358.849 94.717,511.109C77.116,531.686 79.532,562.682 100.109,580.283C120.686,597.884 151.682,595.468 169.283,574.891Z" style="fill:white;"/>
        </g>
        <g transform="matrix(0.142802,0.0757818,-0.0757807,0.142801,172.144,140.814)">
            <path d="M69.998,459.383C238.296,288.075 526.821,266.205 720.308,459.692C739.455,478.839 770.545,478.839 789.692,459.692C808.839,440.545 808.839,409.455 789.692,390.308C554.735,155.351 204.371,182.592 0.002,390.617C-18.975,409.933 -18.699,441.022 0.617,459.998C19.933,478.975 51.022,478.699 69.998,459.383Z" style="fill:white;"/>
        </g>
        <g transform="matrix(-0.137536,0.0849626,-0.0849646,-0.137537,402.666,239.996)">
            <path d="M274.273,540.406C349.426,440.034 476.853,465.795 523.929,537.837C538.741,560.505 569.17,566.883 591.837,552.071C614.505,537.259 620.883,506.83 606.071,484.163C528.698,365.754 319.247,316.625 195.727,481.594C179.497,503.27 183.919,534.044 205.594,550.273C227.27,566.503 258.044,562.081 274.273,540.406Z" style="fill:white;"/>
        </g>
        <g transform="matrix(-0.137536,0.0849626,-0.0849646,-0.137537,420.689,271.649)">
            <path d="M169.283,574.891C267.714,459.816 479.019,422.03 622.121,575.463C640.59,595.265 671.661,596.348 691.463,577.879C711.265,559.41 712.348,528.339 693.879,508.537C504.535,305.524 224.954,358.849 94.717,511.109C77.116,531.686 79.532,562.682 100.109,580.283C120.686,597.884 151.682,595.468 169.283,574.891Z" style="fill:white;"/>
        </g>
        <g transform="matrix(-0.137536,0.0849626,-0.0849646,-0.137537,425.428,279.746)">
            <path d="M69.998,459.383C238.296,288.075 526.821,266.205 720.308,459.692C739.455,478.839 770.545,478.839 789.692,459.692C808.839,440.545 808.839,409.455 789.692,390.308C554.735,155.351 204.371,182.592 0.002,390.617C-18.975,409.933 -18.699,441.022 0.617,459.998C19.933,478.975 51.022,478.699 69.998,459.383Z" style="fill:white;"/>
        </g>
        <g transform="matrix(0,-0.161663,0.161663,0,227.171,420)">
            <path d="M274.273,540.406C349.426,440.034 476.853,465.795 523.929,537.837C538.741,560.505 569.17,566.883 591.837,552.071C614.505,537.259 620.883,506.83 606.071,484.163C528.698,365.754 319.247,316.625 195.727,481.594C179.497,503.27 183.919,534.044 205.594,550.273C227.27,566.503 258.044,562.081 274.273,540.406Z" style="fill:white;"/>
        </g>
        <g transform="matrix(0,-0.161663,0.161663,0,190.771,418.698)">
            <path d="M169.283,574.891C267.714,459.816 479.019,422.03 622.121,575.463C640.59,595.265 671.661,596.348 691.463,577.879C711.265,559.41 712.348,528.339 693.879,508.537C504.535,305.524 224.954,358.849 94.717,511.109C77.116,531.686 79.532,562.682 100.109,580.283C120.686,597.884 151.682,595.468 169.283,574.891Z" style="fill:white;"/>
        </g>
        <g transform="matrix(0,-0.161663,0.161663,0,181.391,418.473)">
            <path d="M69.998,459.383C238.296,288.075 526.821,266.205 720.308,459.692C739.455,478.839 770.545,478.839 789.692,459.692C808.839,440.545 808.839,409.455 789.692,390.308C554.735,155.351 204.371,182.592 0.002,390.617C-18.975,409.933 -18.699,441.022 0.617,459.998C19.933,478.975 51.022,478.699 69.998,459.383Z" style="fill:white;"/>
        </g>
    </g>
</svg>
