<?xml version="1.0" encoding="UTF-8"?>
<svg height="600" width="800" xmlns="http://www.w3.org/2000/svg" xmlns:xlink="http://www.w3.org/1999/xlink">
    <g id="Notes" font-family="'LucidaGrande', 'Lucida Grande', sans-serif" font-size="13">
        <rect fill="white" height="600.0" width="800.0" x="0.0" y="0.0" />
        <g font-size="13">
            <text x="18.0" y="176.0">Small</text>
            <text x="18.0" y="376.0">Medium</text>
            <text x="18.0" y="576.0">Large</text>
        </g>
        <g font-size="9">
            <text x="250.0" y="30.0">Ultralight</text>
            <text x="450.0" y="30.0">Regular</text>
            <text x="650.0" y="30.0">Black</text>
            <text id="template-version" fill="#505050" text-anchor="end" x="785.0" y="575.0">Template v.3.0</text>
            <a href="https://wangchujiang.com/#/app">
                <text fill="#505050" text-anchor="end" x="785.0" y="590.0">https://wangchujiang.com/#/app</text>
            </a>
        </g>
    </g>
    <g id="Guides" stroke="rgb(39, 170, 225)" stroke-width="0.5">
        <path id="Capline-S" d="M18,76 l800,0" />
        <path id="H-reference" d="M85,145.755 L87.685,145.755 L113.369,79.287 L114.052,79.287 L114.052,76 L112.148,76 L85,145.755 Z M95.693,121.536 L130.996,121.536 L130.263,119.313 L96.474,119.313 L95.693,121.536 Z M139.15,145.755 L141.787,145.755 L114.638,76 L113.466,76 L113.466,79.287 L139.15,145.755 Z" stroke="none" />
        <path id="Baseline-S" d="M18,146 l800,0" />
        <path id="left-margin-Ultralight-S" d="M220.065,56 l0,110" />
        <path id="right-margin-Ultralight-S" d="M309.935,56 l0,110" />
        <path id="left-margin-Regular-S" d="M420.065,56 l0,110" />
        <path id="right-margin-Regular-S" d="M509.935,56 l0,110" />
        <path id="left-margin-Black-S" d="M620.065,56 l0,110" />
        <path id="right-margin-Black-S" d="M709.935,56 l0,110" />
        <path id="Capline-M" d="M18,276 l800,0" />
        <path id="Baseline-M" d="M18,346 l800,0" />
        <path id="Capline-L" d="M18,476 l800,0" />
        <path id="Baseline-L" d="M18,546 l800,0" />
    </g>
    <g id="Symbols">
        <g id="Ultralight-S">
            <path d="M271.813,125.172 C271.813,125.529 271.673,125.883 271.401,126.159 C267.644,129.92 267.644,136.032 271.401,139.797 C271.941,140.341 271.941,141.224 271.401,141.768 C270.856,142.313 269.974,142.313 269.429,141.768 C264.58,136.919 264.58,129.037 269.429,124.188 C269.974,123.643 270.856,123.643 271.401,124.188 C271.673,124.46 271.813,124.822 271.813,125.172 Z" />
            <path d="M275.581,128.947 C275.581,129.305 275.441,129.659 275.169,129.931 C274.356,130.744 273.909,131.829 273.909,132.976 C273.909,134.127 274.356,135.212 275.169,136.025 C275.709,136.565 275.709,137.452 275.169,137.996 C274.624,138.537 273.742,138.537 273.197,137.996 C271.86,136.655 271.121,134.874 271.121,132.976 C271.121,131.082 271.86,129.297 273.201,127.96 C273.746,127.419 274.632,127.419 275.173,127.96 C275.441,128.228 275.581,128.59 275.581,128.947 Z" />
            <path d="M267.979,121.341 C267.979,121.699 267.843,122.053 267.57,122.325 C261.699,128.205 261.699,137.751 267.57,143.623 C268.111,144.167 268.111,145.05 267.57,145.595 C267.026,146.135 266.139,146.135 265.599,145.595 C262.224,142.223 260.369,137.743 260.369,132.972 C260.369,128.205 262.224,123.725 265.599,120.35 C266.139,119.809 267.026,119.809 267.57,120.35 C267.843,120.63 267.979,120.987 267.979,121.341 Z" />
            <path d="M253.921,117.705 C253.591,117.565 253.322,117.297 253.182,116.935 C251.227,111.989 245.619,109.555 240.673,111.503 C239.957,111.783 239.145,111.429 238.865,110.718 C238.581,110.002 238.935,109.189 239.65,108.909 C246.027,106.393 253.26,109.535 255.772,115.913 C256.056,116.628 255.702,117.441 254.991,117.721 C254.629,117.865 254.244,117.845 253.921,117.705 Z" />
            <path d="M248.959,119.658 C248.629,119.518 248.361,119.249 248.221,118.888 C247.797,117.822 246.98,116.978 245.926,116.519 C244.873,116.064 243.698,116.041 242.633,116.461 C241.917,116.745 241.104,116.391 240.824,115.676 C240.541,114.964 240.894,114.151 241.61,113.867 C243.372,113.175 245.296,113.206 247.038,113.965 C248.777,114.719 250.118,116.107 250.81,117.873 C251.09,118.584 250.74,119.397 250.025,119.681 C249.671,119.817 249.286,119.801 248.959,119.658 Z" />
            <path d="M258.961,115.718 C258.634,115.574 258.362,115.31 258.222,114.948 C255.17,107.222 246.412,103.419 238.69,106.463 C237.974,106.743 237.161,106.393 236.881,105.678 C236.601,104.962 236.951,104.154 237.667,103.87 C242.104,102.12 246.953,102.205 251.328,104.103 C255.702,106.005 259.07,109.493 260.82,113.93 C261.1,114.641 260.75,115.454 260.034,115.738 C259.669,115.878 259.284,115.858 258.961,115.718 Z" />
            <path d="M270.969,103.784 C271.245,103.555 271.607,103.434 271.992,103.469 C277.288,103.955 281.989,100.047 282.483,94.755 C282.553,93.989 283.234,93.425 284,93.495 C284.762,93.565 285.33,94.245 285.256,95.011 C284.626,101.84 278.564,106.876 271.735,106.246 C270.969,106.176 270.405,105.495 270.475,104.729 C270.51,104.344 270.701,104.01 270.969,103.784 Z" />
            <path d="M271.467,98.472 C271.739,98.247 272.101,98.126 272.486,98.161 C273.629,98.266 274.749,97.916 275.635,97.181 C276.518,96.45 277.066,95.412 277.171,94.269 C277.241,93.503 277.922,92.939 278.688,93.009 C279.45,93.079 280.018,93.759 279.948,94.525 C279.773,96.407 278.875,98.115 277.416,99.328 C275.954,100.541 274.115,101.109 272.225,100.934 C271.463,100.86 270.895,100.179 270.965,99.417 C271,99.036 271.191,98.702 271.467,98.472 Z" />
            <path d="M270.471,109.178 C270.747,108.948 271.109,108.832 271.494,108.867 C279.765,109.625 287.111,103.524 287.873,95.256 C287.943,94.49 288.623,93.927 289.389,93.997 C290.155,94.067 290.719,94.747 290.649,95.513 C290.21,100.261 287.951,104.55 284.28,107.599 C280.613,110.648 275.981,112.082 271.233,111.643 C270.467,111.573 269.904,110.893 269.974,110.13 C270.012,109.738 270.199,109.403 270.471,109.178 Z" />
            <path d="M240.097,122.407 C245.635,122.407 250.13,126.704 250.13,132.004 C250.13,137.3 245.635,141.601 240.097,141.601 C234.56,141.601 230.065,137.3 230.065,132.004 C230.065,126.704 234.56,122.407 240.097,122.407 Z M240.097,125.907 C243.659,125.907 246.63,128.594 246.63,132.004 C246.63,135.414 243.659,138.101 240.097,138.101 C236.531,138.101 233.564,135.414 233.564,132.004 C233.564,128.594 236.531,125.907 240.097,125.907 Z" />
            <path d="M265,76 C270.537,76 275.033,80.301 275.033,85.597 C275.033,90.897 270.537,95.198 265,95.198 C259.463,95.198 254.967,90.897 254.967,85.597 C254.967,80.301 259.463,76 265,76 Z M265,79.305 C268.675,79.305 271.727,82.086 271.727,85.597 C271.727,89.112 268.675,91.893 265,91.893 C261.325,91.893 258.273,89.112 258.273,85.597 C258.273,82.086 261.325,79.305 265,79.305 Z" />
            <path d="M289.903,122.407 C295.44,122.407 299.935,126.704 299.935,132.004 C299.935,137.3 295.44,141.601 289.903,141.601 C284.365,141.601 279.87,137.3 279.87,132.004 C279.87,126.704 284.365,122.407 289.903,122.407 Z M289.903,126.101 C293.36,126.101 296.241,128.699 296.241,132.004 C296.241,135.309 293.36,137.907 289.903,137.907 C286.45,137.907 283.564,135.309 283.564,132.004 C283.564,128.699 286.45,126.101 289.903,126.101 Z" />
        </g>
        <g id="Regular-S">
            <path d="M471.813,125.172 C471.813,125.529 471.673,125.883 471.401,126.159 C467.644,129.92 467.644,136.032 471.401,139.797 C471.941,140.341 471.941,141.224 471.401,141.768 C470.856,142.313 469.974,142.313 469.429,141.768 C464.58,136.919 464.58,129.037 469.429,124.188 C469.974,123.643 470.856,123.643 471.401,124.188 C471.673,124.46 471.813,124.822 471.813,125.172 Z" />
            <path d="M475.581,128.947 C475.581,129.305 475.441,129.659 475.169,129.931 C474.356,130.744 473.909,131.829 473.909,132.976 C473.909,134.127 474.356,135.212 475.169,136.025 C475.709,136.565 475.709,137.452 475.169,137.996 C474.624,138.537 473.742,138.537 473.197,137.996 C471.859,136.655 471.121,134.874 471.121,132.976 C471.121,131.082 471.859,129.297 473.201,127.96 C473.745,127.419 474.632,127.419 475.173,127.96 C475.441,128.228 475.581,128.59 475.581,128.947 Z" />
            <path d="M467.979,121.341 C467.979,121.699 467.843,122.053 467.57,122.325 C461.699,128.205 461.699,137.751 467.57,143.623 C468.111,144.167 468.111,145.05 467.57,145.595 C467.026,146.135 466.139,146.135 465.599,145.595 C462.224,142.223 460.369,137.743 460.369,132.972 C460.369,128.205 462.224,123.725 465.599,120.35 C466.139,119.809 467.026,119.809 467.57,120.35 C467.843,120.63 467.979,120.987 467.979,121.341 Z" />
            <path d="M453.921,117.705 C453.591,117.565 453.322,117.297 453.182,116.935 C451.227,111.989 445.619,109.555 440.673,111.503 C439.957,111.783 439.145,111.429 438.865,110.718 C438.581,110.002 438.935,109.189 439.65,108.909 C446.027,106.393 453.26,109.535 455.772,115.913 C456.056,116.628 455.702,117.441 454.991,117.721 C454.629,117.865 454.244,117.845 453.921,117.705 Z" />
            <path d="M448.959,119.658 C448.629,119.518 448.361,119.249 448.221,118.888 C447.797,117.822 446.98,116.978 445.926,116.519 C444.872,116.064 443.698,116.041 442.633,116.461 C441.917,116.745 441.104,116.391 440.824,115.676 C440.541,114.964 440.894,114.151 441.61,113.867 C443.371,113.175 445.296,113.206 447.038,113.965 C448.777,114.719 450.118,116.107 450.81,117.873 C451.09,118.584 450.74,119.397 450.025,119.681 C449.671,119.817 449.286,119.801 448.959,119.658 Z" />
            <path d="M458.961,115.718 C458.634,115.574 458.362,115.31 458.222,114.948 C455.17,107.222 446.412,103.419 438.69,106.463 C437.974,106.743 437.161,106.393 436.881,105.678 C436.601,104.962 436.951,104.154 437.667,103.87 C442.104,102.12 446.953,102.205 451.328,104.103 C455.702,106.005 459.07,109.493 460.82,113.93 C461.1,114.641 460.75,115.454 460.034,115.738 C459.669,115.878 459.284,115.858 458.961,115.718 Z" />
            <path d="M470.969,103.784 C471.245,103.555 471.607,103.434 471.992,103.469 C477.288,103.955 481.989,100.047 482.483,94.755 C482.553,93.989 483.234,93.425 484,93.495 C484.762,93.565 485.33,94.245 485.256,95.011 C484.626,101.84 478.563,106.876 471.735,106.246 C470.969,106.176 470.405,105.495 470.475,104.729 C470.51,104.344 470.701,104.01 470.969,103.784 Z" />
            <path d="M471.467,98.472 C471.739,98.247 472.101,98.126 472.486,98.161 C473.629,98.266 474.749,97.916 475.635,97.181 C476.518,96.45 477.066,95.412 477.171,94.269 C477.241,93.503 477.922,92.939 478.688,93.009 C479.45,93.079 480.018,93.759 479.948,94.525 C479.773,96.407 478.875,98.115 477.416,99.328 C475.954,100.541 474.115,101.109 472.225,100.934 C471.463,100.86 470.895,100.179 470.965,99.417 C471,99.036 471.191,98.702 471.467,98.472 Z" />
            <path d="M470.471,109.178 C470.747,108.948 471.109,108.832 471.494,108.867 C479.765,109.625 487.111,103.524 487.873,95.256 C487.943,94.49 488.623,93.927 489.389,93.997 C490.155,94.067 490.719,94.747 490.649,95.513 C490.21,100.261 487.951,104.55 484.28,107.599 C480.613,110.648 475.981,112.082 471.233,111.643 C470.467,111.573 469.904,110.893 469.974,110.13 C470.012,109.738 470.199,109.403 470.471,109.178 Z" />
            <path d="M440.097,122.407 C445.635,122.407 450.13,126.704 450.13,132.004 C450.13,137.3 445.635,141.601 440.097,141.601 C434.56,141.601 430.065,137.3 430.065,132.004 C430.065,126.704 434.56,122.407 440.097,122.407 Z M440.097,125.907 C443.659,125.907 446.63,128.594 446.63,132.004 C446.63,135.414 443.659,138.101 440.097,138.101 C436.531,138.101 433.564,135.414 433.564,132.004 C433.564,128.594 436.531,125.907 440.097,125.907 Z" />
            <path d="M465,76 C470.537,76 475.033,80.301 475.033,85.597 C475.033,90.897 470.537,95.198 465,95.198 C459.463,95.198 454.967,90.897 454.967,85.597 C454.967,80.301 459.463,76 465,76 Z M465,79.305 C468.675,79.305 471.727,82.086 471.727,85.597 C471.727,89.112 468.675,91.893 465,91.893 C461.325,91.893 458.273,89.112 458.273,85.597 C458.273,82.086 461.325,79.305 465,79.305 Z" />
            <path d="M489.903,122.407 C495.44,122.407 499.935,126.704 499.935,132.004 C499.935,137.3 495.44,141.601 489.903,141.601 C484.365,141.601 479.87,137.3 479.87,132.004 C479.87,126.704 484.365,122.407 489.903,122.407 Z M489.903,126.101 C493.36,126.101 496.241,128.699 496.241,132.004 C496.241,135.309 493.36,137.907 489.903,137.907 C486.45,137.907 483.564,135.309 483.564,132.004 C483.564,128.699 486.45,126.101 489.903,126.101 Z" />
        </g>
        <g id="Black-S">
            <path d="M671.813,125.172 C671.813,125.529 671.673,125.883 671.401,126.159 C667.644,129.92 667.644,136.032 671.401,139.797 C671.941,140.341 671.941,141.224 671.401,141.768 C670.856,142.313 669.974,142.313 669.429,141.768 C664.58,136.919 664.58,129.037 669.429,124.188 C669.974,123.643 670.856,123.643 671.401,124.188 C671.673,124.46 671.813,124.822 671.813,125.172 Z" />
            <path d="M675.581,128.947 C675.581,129.305 675.441,129.659 675.169,129.931 C674.356,130.744 673.909,131.829 673.909,132.976 C673.909,134.127 674.356,135.212 675.169,136.025 C675.709,136.565 675.709,137.452 675.169,137.996 C674.624,138.537 673.742,138.537 673.197,137.996 C671.859,136.655 671.121,134.874 671.121,132.976 C671.121,131.082 671.859,129.297 673.201,127.96 C673.745,127.419 674.632,127.419 675.173,127.96 C675.441,128.228 675.581,128.59 675.581,128.947 Z" />
            <path d="M667.979,121.341 C667.979,121.699 667.843,122.053 667.57,122.325 C661.699,128.205 661.699,137.751 667.57,143.623 C668.111,144.167 668.111,145.05 667.57,145.595 C667.026,146.135 666.139,146.135 665.599,145.595 C662.224,142.223 660.369,137.743 660.369,132.972 C660.369,128.205 662.224,123.725 665.599,120.35 C666.139,119.809 667.026,119.809 667.57,120.35 C667.843,120.63 667.979,120.987 667.979,121.341 Z" />
            <path d="M653.921,117.705 C653.591,117.565 653.322,117.297 653.182,116.935 C651.227,111.989 645.619,109.555 640.673,111.503 C639.957,111.783 639.145,111.429 638.865,110.718 C638.581,110.002 638.935,109.189 639.65,108.909 C646.027,106.393 653.26,109.535 655.772,115.913 C656.056,116.628 655.702,117.441 654.991,117.721 C654.629,117.865 654.244,117.845 653.921,117.705 Z" />
            <path d="M648.959,119.658 C648.629,119.518 648.361,119.249 648.221,118.888 C647.797,117.822 646.98,116.978 645.926,116.519 C644.872,116.064 643.698,116.041 642.633,116.461 C641.917,116.745 641.104,116.391 640.824,115.676 C640.541,114.964 640.894,114.151 641.61,113.867 C643.371,113.175 645.296,113.206 647.038,113.965 C648.777,114.719 650.118,116.107 650.81,117.873 C651.09,118.584 650.74,119.397 650.025,119.681 C649.671,119.817 649.286,119.801 648.959,119.658 Z" />
            <path d="M658.961,115.718 C658.634,115.574 658.362,115.31 658.222,114.948 C655.17,107.222 646.412,103.419 638.69,106.463 C637.974,106.743 637.161,106.393 636.881,105.678 C636.601,104.962 636.951,104.154 637.667,103.87 C642.104,102.12 646.953,102.205 651.328,104.103 C655.702,106.005 659.07,109.493 660.82,113.93 C661.1,114.641 660.75,115.454 660.034,115.738 C659.669,115.878 659.284,115.858 658.961,115.718 Z" />
            <path d="M670.969,103.784 C671.245,103.555 671.607,103.434 671.992,103.469 C677.288,103.955 681.989,100.047 682.483,94.755 C682.553,93.989 683.234,93.425 684,93.495 C684.762,93.565 685.33,94.245 685.256,95.011 C684.626,101.84 678.563,106.876 671.735,106.246 C670.969,106.176 670.405,105.495 670.475,104.729 C670.51,104.344 670.701,104.01 670.969,103.784 Z" />
            <path d="M671.467,98.472 C671.739,98.247 672.101,98.126 672.486,98.161 C673.629,98.266 674.749,97.916 675.635,97.181 C676.518,96.45 677.066,95.412 677.171,94.269 C677.241,93.503 677.922,92.939 678.688,93.009 C679.45,93.079 680.018,93.759 679.948,94.525 C679.773,96.407 678.875,98.115 677.416,99.328 C675.954,100.541 674.115,101.109 672.225,100.934 C671.463,100.86 670.895,100.179 670.965,99.417 C671,99.036 671.191,98.702 671.467,98.472 Z" />
            <path d="M670.471,109.178 C670.747,108.948 671.109,108.832 671.494,108.867 C679.765,109.625 687.111,103.524 687.873,95.256 C687.943,94.49 688.623,93.927 689.389,93.997 C690.155,94.067 690.719,94.747 690.649,95.513 C690.21,100.261 687.951,104.55 684.28,107.599 C680.613,110.648 675.981,112.082 671.233,111.643 C670.467,111.573 669.904,110.893 669.974,110.13 C670.012,109.738 670.199,109.403 670.471,109.178 Z" />
            <path d="M640.097,122.407 C645.635,122.407 650.13,126.704 650.13,132.004 C650.13,137.3 645.635,141.601 640.097,141.601 C634.56,141.601 630.065,137.3 630.065,132.004 C630.065,126.704 634.56,122.407 640.097,122.407 Z M640.097,125.907 C643.659,125.907 646.63,128.594 646.63,132.004 C646.63,135.414 643.659,138.101 640.097,138.101 C636.531,138.101 633.564,135.414 633.564,132.004 C633.564,128.594 636.531,125.907 640.097,125.907 Z" />
            <path d="M665,76 C670.537,76 675.033,80.301 675.033,85.597 C675.033,90.897 670.537,95.198 665,95.198 C659.463,95.198 654.967,90.897 654.967,85.597 C654.967,80.301 659.463,76 665,76 Z M665,79.305 C668.675,79.305 671.727,82.086 671.727,85.597 C671.727,89.112 668.675,91.893 665,91.893 C661.325,91.893 658.273,89.112 658.273,85.597 C658.273,82.086 661.325,79.305 665,79.305 Z" />
            <path d="M689.903,122.407 C695.44,122.407 699.935,126.704 699.935,132.004 C699.935,137.3 695.44,141.601 689.903,141.601 C684.365,141.601 679.87,137.3 679.87,132.004 C679.87,126.704 684.365,122.407 689.903,122.407 Z M689.903,126.101 C693.36,126.101 696.241,128.699 696.241,132.004 C696.241,135.309 693.36,137.907 689.903,137.907 C686.45,137.907 683.564,135.309 683.564,132.004 C683.564,128.699 686.45,126.101 689.903,126.101 Z" />
        </g>
    </g>
</svg>